<svg width="9" height="16" viewBox="0 0 9 16" fill="none" xmlns="http://www.w3.org/2000/svg">
<path d="M4.079 2.13705C3.72973 2.13705 3.39917 2.1928 3.08732 2.3043C2.78794 2.4158 2.51975 2.57685 2.28274 2.78746C2.05821 2.98568 1.87734 3.22726 1.74012 3.5122C1.61538 3.79714 1.55301 4.11305 1.55301 4.45993C1.55301 4.86876 1.61538 5.20945 1.74012 5.482C1.87734 5.75455 2.05821 5.98374 2.28274 6.16957C2.51975 6.34301 2.78794 6.48548 3.08732 6.59698C3.39917 6.70848 3.72973 6.81378 4.079 6.91289V2.13705ZM4.95842 13.5842C5.34511 13.5842 5.70686 13.5161 6.04366 13.3798C6.39293 13.2435 6.69854 13.0577 6.9605 12.8223C7.22245 12.5869 7.42827 12.3082 7.57796 11.9861C7.72765 11.6516 7.8025 11.2861 7.8025 10.8897C7.8025 10.4313 7.72765 10.0534 7.57796 9.7561C7.42827 9.44638 7.22245 9.19861 6.9605 9.01278C6.71102 8.81456 6.41164 8.6597 6.06237 8.5482C5.72557 8.4367 5.35759 8.33759 4.95842 8.25087V13.5842ZM4.95842 16H4.09771V14.5877C3.03742 14.5257 2.158 14.2346 1.45946 13.7143C0.773389 13.194 0.318087 12.4135 0.0935552 11.3728C0.0686072 11.2118 0.0498961 11.0569 0.037422 10.9082C0.024948 10.7596 0.012474 10.6109 0 10.4623H1.21622C1.21622 10.8835 1.28482 11.2799 1.42204 11.6516C1.55925 12.0108 1.7526 12.3329 2.00208 12.6179C2.26403 12.8904 2.56965 13.1134 2.91892 13.2869C3.26819 13.4603 3.65489 13.5594 4.079 13.5842V8.06504C3.56757 7.94115 3.08108 7.79868 2.61954 7.63763C2.17048 7.46419 1.77755 7.24739 1.44075 6.98722C1.10395 6.71467 0.835759 6.38018 0.636175 5.98374C0.449064 5.5873 0.355509 5.09795 0.355509 4.51568C0.355509 3.99535 0.455301 3.52458 0.654886 3.10337C0.85447 2.68215 1.12266 2.32288 1.45946 2.02555C1.80873 1.72822 2.2079 1.50523 2.65696 1.35656C3.10603 1.19551 3.58628 1.12118 4.09771 1.13357V0H4.95842V1.13357C5.46985 1.13357 5.94387 1.2079 6.38046 1.35656C6.81705 1.49284 7.1975 1.70344 7.52183 1.98838C7.84615 2.26094 8.10187 2.60163 8.28898 3.01045C8.47609 3.41928 8.58212 3.88386 8.60707 4.40418H7.39085C7.39085 4.06969 7.32225 3.76616 7.18503 3.49361C7.06029 3.20867 6.88565 2.96709 6.66112 2.76887C6.44906 2.57065 6.19335 2.4158 5.89397 2.3043C5.60707 2.1928 5.29522 2.13705 4.95842 2.13705V7.08014C5.56965 7.2288 6.12474 7.38986 6.6237 7.5633C7.12266 7.73674 7.54678 7.96593 7.89605 8.25087C8.24532 8.53581 8.51351 8.90747 8.70062 9.36585C8.90021 9.81185 9 10.3879 9 11.0941C9 11.6392 8.8815 12.1285 8.64449 12.5621C8.40748 12.9834 8.09563 13.3426 7.70894 13.64C7.33472 13.9373 6.90437 14.1665 6.41788 14.3275C5.93139 14.4886 5.44491 14.5753 4.95842 14.5877V16Z" fill="black"/>
</svg>
