<svg width="30" height="30" viewBox="0 0 30 30" fill="none" xmlns="http://www.w3.org/2000/svg">
<path d="M12 3C7.02944 3 3 7.02944 3 12C3 16.9706 7.02944 21 12 21C16.9706 21 21 16.9706 21 12C21 7.02944 16.9706 3 12 3ZM0 12C0 5.37258 5.37258 0 12 0C18.6274 0 24 5.37258 24 12C24 14.7731 23.0594 17.3264 21.4798 19.3585L29.5607 27.4393C30.1464 28.0251 30.1464 28.9749 29.5607 29.5607C28.9749 30.1464 28.0251 30.1464 27.4393 29.5607L19.3585 21.4798C17.3264 23.0594 14.7731 24 12 24C5.37258 24 0 18.6274 0 12Z" fill="#031EE8"/>
</svg>
