<svg width="37" height="37" viewBox="0 0 37 37" fill="none" xmlns="http://www.w3.org/2000/svg">
<path d="M8.15955 8.16053C8.76161 7.55847 9.73774 7.55847 10.3398 8.16053L18.4997 16.3204L26.6596 8.16053C27.2616 7.55847 28.2377 7.55847 28.8398 8.16053C29.4419 8.76259 29.4419 9.73872 28.8398 10.3408L20.6799 18.5007L28.8398 26.6605C29.4419 27.2626 29.4419 28.2387 28.8398 28.8408C28.2377 29.4428 27.2616 29.4428 26.6596 28.8408L18.4997 20.6809L10.3398 28.8408C9.73774 29.4428 8.76161 29.4428 8.15955 28.8408C7.55749 28.2387 7.55749 27.2626 8.15955 26.6605L16.3194 18.5007L8.15955 10.3408C7.55749 9.73872 7.55749 8.76259 8.15955 8.16053Z" fill="#031EE8"/>
</svg>
