<svg width="14" height="14" viewBox="0 0 14 14" fill="none" xmlns="http://www.w3.org/2000/svg">
<path fill-rule="evenodd" clip-rule="evenodd" d="M5.90563 10.6304C8.5149 10.6304 10.6301 8.51514 10.6301 5.9058C10.6301 3.29645 8.5149 1.18116 5.90563 1.18116C3.29636 1.18116 1.18113 3.29645 1.18113 5.9058C1.18113 8.51514 3.29636 10.6304 5.90563 10.6304ZM5.90563 11.8116C9.16722 11.8116 11.8113 9.16748 11.8113 5.9058C11.8113 2.64412 9.16722 0 5.90563 0C2.64404 0 0 2.64412 0 5.9058C0 9.16748 2.64404 11.8116 5.90563 11.8116Z" fill="black"/>
<path fill-rule="evenodd" clip-rule="evenodd" d="M13.1648 14.0007L9.03088 9.86664L9.86606 9.03144L14 13.1655L13.1648 14.0007Z" fill="black"/>
</svg>
